<svg width="66" height="64" viewBox="0 0 66 64" fill="none" xmlns="http://www.w3.org/2000/svg">
<path fill-rule="evenodd" clip-rule="evenodd" d="M0 6.4C0 4.70262 0.730557 3.07475 2.03096 1.87452C3.33136 0.674289 5.09508 5.40525e-06 6.93412 5.40525e-06L13.8682 5.40525e-06C15.1303 5.40525e-06 16.316 0.310405 17.3353 0.857605C18.3888 0.294421 19.5849 -0.00145842 20.8024 5.40525e-06L27.7365 5.40525e-06C30.2571 5.40525e-06 32.4656 1.24161 33.679 3.10081C34.4071 2.56321 35.26 2.1536 36.2169 1.9168L42.9153 0.262405C43.7949 0.0446229 44.7124 -0.0110899 45.6154 0.0984498C46.5184 0.207989 47.3892 0.480636 48.1779 0.900816C48.9667 1.321 49.6581 1.88048 50.2126 2.54731C50.7671 3.21415 51.1738 3.97527 51.4096 4.7872L65.7632 54.2432C65.9992 55.0551 66.0596 55.9019 65.9409 56.7353C65.8222 57.5688 65.5268 58.3724 65.0715 59.1005C64.6163 59.8285 64.0101 60.4666 63.2876 60.9784C62.5651 61.4902 61.7405 61.8656 60.8608 62.0832L54.1624 63.7376C53.2828 63.9554 52.3653 64.0111 51.4623 63.9016C50.5593 63.792 49.6886 63.5194 48.8998 63.0992C48.111 62.679 47.4196 62.1195 46.8651 61.4527C46.3106 60.7859 45.9039 60.0247 45.6681 59.2128L34.6706 21.3216V57.6C34.6706 59.2974 33.9401 60.9252 32.6397 62.1255C31.3393 63.3257 29.5755 64 27.7365 64H20.8024C19.5849 64.0015 18.3888 63.7056 17.3353 63.1424C16.2818 63.7056 15.0857 64.0015 13.8682 64H6.93412C5.09508 64 3.33136 63.3257 2.03096 62.1255C0.730557 60.9252 0 59.2974 0 57.6L0 6.4ZM6.93412 6.4H13.8682V57.6H6.93412V6.4ZM27.7365 57.6H20.8024V6.4H27.7365V57.6ZM38.0129 8.0992L44.7078 6.4448L59.0683 55.9008L52.37 57.5552L38.0129 8.0992Z" fill="black"/>
</svg>
